<svg width="40" height="40" viewBox="0 0 40 40" fill="none" xmlns="http://www.w3.org/2000/svg">
<path d="M19.9997 37.9172C18.9497 37.9172 17.9663 37.5173 17.233 36.7673L14.6997 34.234C14.4997 34.034 13.9663 33.8173 13.6997 33.8173H10.0997C7.933 33.8173 6.18299 32.0671 6.18299 29.9005V26.3006C6.18299 26.0339 5.96633 25.5006 5.76633 25.3006L3.23301 22.7673C2.49968 22.0339 2.08301 21.0506 2.08301 20.0006C2.08301 18.9506 2.48301 17.9672 3.23301 17.2338L5.76633 14.7005C5.96633 14.5005 6.18299 13.9672 6.18299 13.7005V10.1007C6.18299 7.93398 7.933 6.18382 10.0997 6.18382H13.6997C13.9663 6.18382 14.4997 5.96716 14.6997 5.76716L17.233 3.23379C18.6997 1.76712 21.2997 1.76712 22.7663 3.23379L25.2997 5.76716C25.4997 5.96716 26.033 6.18382 26.2997 6.18382H29.8997C32.0663 6.18382 33.8164 7.93398 33.8164 10.1007V13.7005C33.8164 13.9672 34.033 14.5005 34.233 14.7005L36.7663 17.2338C37.4997 17.9672 37.9163 18.9506 37.9163 20.0006C37.9163 21.0506 37.5163 22.0339 36.7663 22.7673L34.233 25.3006C34.033 25.5006 33.8164 26.0339 33.8164 26.3006V29.9005C33.8164 32.0671 32.0663 33.8173 29.8997 33.8173H26.2997C26.033 33.8173 25.4997 34.034 25.2997 34.234L22.7663 36.7673C22.033 37.5173 21.0497 37.9172 19.9997 37.9172ZM7.53299 23.5339C8.19966 24.2005 8.68299 25.3673 8.68299 26.3006V29.9005C8.68299 30.6838 9.31634 31.3173 10.0997 31.3173H13.6997C14.633 31.3173 15.7997 31.8005 16.4663 32.4672L18.9997 35.0006C19.533 35.5339 20.4664 35.5339 20.9997 35.0006L23.533 32.4672C24.1997 31.8005 25.3663 31.3173 26.2997 31.3173H29.8997C30.683 31.3173 31.3164 30.6838 31.3164 29.9005V26.3006C31.3164 25.3673 31.7997 24.2005 32.4664 23.5339L34.9997 21.0005C35.2663 20.7338 35.4163 20.3839 35.4163 20.0006C35.4163 19.6172 35.2663 19.2673 34.9997 19.0006L32.4664 16.4672C31.7997 15.8006 31.3164 14.6338 31.3164 13.7005V10.1007C31.3164 9.31732 30.683 8.68382 29.8997 8.68382H26.2997C25.3663 8.68382 24.1997 8.20059 23.533 7.53392L20.9997 5.00055C20.4664 4.46722 19.533 4.46722 18.9997 5.00055L16.4663 7.53392C15.7997 8.20059 14.633 8.68382 13.6997 8.68382H10.0997C9.31634 8.68382 8.68299 9.31732 8.68299 10.1007V13.7005C8.68299 14.6338 8.19966 15.8006 7.53299 16.4672L4.99967 19.0006C4.73301 19.2673 4.58301 19.6172 4.58301 20.0006C4.58301 20.3839 4.73301 20.7338 4.99967 21.0005L7.53299 23.5339Z" fill="#242424"/>
<path d="M25.0007 26.6666C24.0674 26.6666 23.3174 25.9166 23.3174 25C23.3174 24.0833 24.0674 23.3333 24.984 23.3333C25.9007 23.3333 26.6507 24.0833 26.6507 25C26.6507 25.9166 25.9174 26.6666 25.0007 26.6666Z" fill="#242424"/>
<path d="M15.0164 16.6666C14.083 16.6666 13.333 15.9166 13.333 15C13.333 14.0833 14.083 13.3333 14.9997 13.3333C15.9163 13.3333 16.6663 14.0833 16.6663 15C16.6663 15.9166 15.933 16.6666 15.0164 16.6666Z" fill="#242424"/>
<path d="M14.9997 26.2491C14.6831 26.2491 14.3664 26.1325 14.1164 25.8825C13.6331 25.3992 13.6331 24.5991 14.1164 24.1157L24.1164 14.1157C24.5997 13.6324 25.3997 13.6324 25.8831 14.1157C26.3664 14.5991 26.3664 15.3992 25.8831 15.8825L15.8831 25.8825C15.6331 26.1325 15.3164 26.2491 14.9997 26.2491Z" fill="#242424"/>
</svg>
